<mxfile host="app.diagrams.net" agent="Mozilla/5.0 (Windows NT 10.0; Win64; x64) AppleWebKit/537.36 (KHTML, like Gecko) Chrome/138.0.0.0 Safari/537.36 Edg/138.0.0.0" version="28.0.7">
  <diagram name="Page-1" id="XZNoGqd64cOCeawMDGhp">
    <mxGraphModel dx="1034" dy="604" grid="1" gridSize="10" guides="1" tooltips="1" connect="1" arrows="1" fold="1" page="1" pageScale="1" pageWidth="850" pageHeight="1100" background="#ffffff" math="0" shadow="0">
      <root>
        <mxCell id="0" />
        <mxCell id="1" parent="0" />
        <mxCell id="G0Ot-FoULC2eowzURZDv-1" value="Check Roles of Access" style="ellipse;whiteSpace=wrap;html=1;aspect=fixed;strokeColor=#3700CC;fillColor=#6a00ff;fontColor=#ffffff;" vertex="1" parent="1">
          <mxGeometry x="425" y="100" width="80" height="80" as="geometry" />
        </mxCell>
        <mxCell id="G0Ot-FoULC2eowzURZDv-2" value="Manage&lt;div&gt;Modules&lt;/div&gt;" style="ellipse;whiteSpace=wrap;html=1;aspect=fixed;fillColor=#6a00ff;fontColor=#ffffff;strokeColor=#3700CC;" vertex="1" parent="1">
          <mxGeometry x="425" y="230" width="80" height="80" as="geometry" />
        </mxCell>
        <mxCell id="G0Ot-FoULC2eowzURZDv-3" value="Login to System" style="ellipse;whiteSpace=wrap;html=1;aspect=fixed;fillColor=#6a00ff;fontColor=#ffffff;strokeColor=#3700CC;" vertex="1" parent="1">
          <mxGeometry x="260" y="100" width="80" height="80" as="geometry" />
        </mxCell>
        <mxCell id="G0Ot-FoULC2eowzURZDv-4" value="Check credentials" style="ellipse;whiteSpace=wrap;html=1;aspect=fixed;fillColor=#6a00ff;fontColor=#ffffff;strokeColor=#3700CC;" vertex="1" parent="1">
          <mxGeometry x="260" y="230" width="80" height="80" as="geometry" />
        </mxCell>
        <mxCell id="G0Ot-FoULC2eowzURZDv-5" value="Admin" style="rounded=0;whiteSpace=wrap;html=1;fillColor=#6a00ff;fontColor=#ffffff;strokeColor=#3700CC;" vertex="1" parent="1">
          <mxGeometry x="40" y="120" width="120" height="40" as="geometry" />
        </mxCell>
        <mxCell id="G0Ot-FoULC2eowzURZDv-27" value="" style="edgeStyle=orthogonalEdgeStyle;rounded=0;orthogonalLoop=1;jettySize=auto;html=1;" edge="1" parent="1" source="G0Ot-FoULC2eowzURZDv-7" target="G0Ot-FoULC2eowzURZDv-8">
          <mxGeometry relative="1" as="geometry" />
        </mxCell>
        <mxCell id="G0Ot-FoULC2eowzURZDv-7" value="Forgot&lt;div&gt;Password&lt;/div&gt;" style="ellipse;whiteSpace=wrap;html=1;aspect=fixed;fillColor=#6a00ff;fontColor=#ffffff;strokeColor=#3700CC;" vertex="1" parent="1">
          <mxGeometry x="60" y="220" width="80" height="80" as="geometry" />
        </mxCell>
        <mxCell id="G0Ot-FoULC2eowzURZDv-8" value="Send Email&lt;div&gt;to User&lt;/div&gt;" style="ellipse;whiteSpace=wrap;html=1;aspect=fixed;fillColor=#6a00ff;fontColor=#ffffff;strokeColor=#3700CC;" vertex="1" parent="1">
          <mxGeometry x="60" y="350" width="80" height="80" as="geometry" />
        </mxCell>
        <mxCell id="G0Ot-FoULC2eowzURZDv-9" value="Manage System Admins" style="rounded=0;whiteSpace=wrap;html=1;fillColor=#6a00ff;fontColor=#ffffff;strokeColor=#3700CC;" vertex="1" parent="1">
          <mxGeometry x="40" y="480" width="170" height="50" as="geometry" />
        </mxCell>
        <mxCell id="G0Ot-FoULC2eowzURZDv-12" value="Manage Roles of User" style="rounded=0;whiteSpace=wrap;html=1;fillColor=#6a00ff;fontColor=#ffffff;strokeColor=#3700CC;" vertex="1" parent="1">
          <mxGeometry x="230" y="480" width="180" height="50" as="geometry" />
        </mxCell>
        <mxCell id="G0Ot-FoULC2eowzURZDv-13" value="Manage User Permission" style="rounded=0;whiteSpace=wrap;html=1;fillColor=#6a00ff;fontColor=#ffffff;strokeColor=#3700CC;" vertex="1" parent="1">
          <mxGeometry x="430" y="480" width="175" height="50" as="geometry" />
        </mxCell>
        <mxCell id="G0Ot-FoULC2eowzURZDv-14" value="Manage Timetable&lt;div&gt;Details&lt;/div&gt;" style="rounded=0;whiteSpace=wrap;html=1;fillColor=#6a00ff;fontColor=#ffffff;strokeColor=#3700CC;" vertex="1" parent="1">
          <mxGeometry x="620" y="100" width="150" height="40" as="geometry" />
        </mxCell>
        <mxCell id="G0Ot-FoULC2eowzURZDv-15" value="Manage Attendence&lt;div&gt;Details&lt;/div&gt;" style="rounded=0;whiteSpace=wrap;html=1;fillColor=#6a00ff;fontColor=#ffffff;strokeColor=#3700CC;" vertex="1" parent="1">
          <mxGeometry x="620" y="150" width="150" height="40" as="geometry" />
        </mxCell>
        <mxCell id="G0Ot-FoULC2eowzURZDv-16" value="Manage Class Details" style="rounded=0;whiteSpace=wrap;html=1;strokeColor=#3700CC;fillColor=#6a00ff;fontColor=#ffffff;" vertex="1" parent="1">
          <mxGeometry x="620" y="200" width="150" height="40" as="geometry" />
        </mxCell>
        <mxCell id="G0Ot-FoULC2eowzURZDv-17" value="Manage Student Details" style="rounded=0;whiteSpace=wrap;html=1;fillColor=#6a00ff;fontColor=#ffffff;strokeColor=#3700CC;" vertex="1" parent="1">
          <mxGeometry x="620" y="250" width="150" height="40" as="geometry" />
        </mxCell>
        <mxCell id="G0Ot-FoULC2eowzURZDv-18" value="Manage fees Details" style="rounded=0;whiteSpace=wrap;html=1;fillColor=#6a00ff;fontColor=#ffffff;strokeColor=#3700CC;" vertex="1" parent="1">
          <mxGeometry x="620" y="300" width="150" height="40" as="geometry" />
        </mxCell>
        <mxCell id="G0Ot-FoULC2eowzURZDv-19" value="Manage Teacher Profiles" style="rounded=0;whiteSpace=wrap;html=1;fillColor=#6a00ff;fontColor=#ffffff;strokeColor=#3700CC;" vertex="1" parent="1">
          <mxGeometry x="620" y="350" width="150" height="40" as="geometry" />
        </mxCell>
        <mxCell id="G0Ot-FoULC2eowzURZDv-20" value="Manage Report" style="rounded=0;whiteSpace=wrap;html=1;fillColor=#6a00ff;fontColor=#ffffff;strokeColor=#3700CC;" vertex="1" parent="1">
          <mxGeometry x="620" y="400" width="150" height="40" as="geometry" />
        </mxCell>
        <mxCell id="G0Ot-FoULC2eowzURZDv-22" value="Student Information System" style="rounded=0;whiteSpace=wrap;html=1;strokeColor=#3700CC;fillColor=#6a00ff;fontColor=#ffffff;" vertex="1" parent="1">
          <mxGeometry x="210" y="40" width="370" height="40" as="geometry" />
        </mxCell>
        <mxCell id="G0Ot-FoULC2eowzURZDv-23" value="" style="endArrow=classic;html=1;rounded=0;" edge="1" parent="1" source="G0Ot-FoULC2eowzURZDv-5">
          <mxGeometry width="50" height="50" relative="1" as="geometry">
            <mxPoint x="170" y="180" as="sourcePoint" />
            <mxPoint x="250" y="140" as="targetPoint" />
            <Array as="points">
              <mxPoint x="220" y="140" />
            </Array>
          </mxGeometry>
        </mxCell>
        <mxCell id="G0Ot-FoULC2eowzURZDv-24" value="" style="endArrow=classic;html=1;rounded=0;" edge="1" parent="1">
          <mxGeometry width="50" height="50" relative="1" as="geometry">
            <mxPoint x="99.5" y="160" as="sourcePoint" />
            <mxPoint x="100" y="210" as="targetPoint" />
            <Array as="points">
              <mxPoint x="99.5" y="210" />
              <mxPoint x="99.5" y="200" />
            </Array>
          </mxGeometry>
        </mxCell>
        <mxCell id="G0Ot-FoULC2eowzURZDv-28" value="" style="endArrow=classic;html=1;rounded=0;" edge="1" parent="1">
          <mxGeometry width="50" height="50" relative="1" as="geometry">
            <mxPoint x="299.5" y="180" as="sourcePoint" />
            <mxPoint x="300" y="230" as="targetPoint" />
            <Array as="points">
              <mxPoint x="299.5" y="230" />
              <mxPoint x="299.5" y="220" />
            </Array>
          </mxGeometry>
        </mxCell>
        <mxCell id="G0Ot-FoULC2eowzURZDv-31" value="" style="endArrow=classic;html=1;rounded=0;entryX=0.032;entryY=0.795;entryDx=0;entryDy=0;entryPerimeter=0;" edge="1" parent="1" source="G0Ot-FoULC2eowzURZDv-4" target="G0Ot-FoULC2eowzURZDv-1">
          <mxGeometry width="50" height="50" relative="1" as="geometry">
            <mxPoint x="370" y="220" as="sourcePoint" />
            <mxPoint x="420" y="170" as="targetPoint" />
          </mxGeometry>
        </mxCell>
        <mxCell id="G0Ot-FoULC2eowzURZDv-32" value="" style="endArrow=classic;html=1;rounded=0;" edge="1" parent="1">
          <mxGeometry width="50" height="50" relative="1" as="geometry">
            <mxPoint x="464.5" y="180" as="sourcePoint" />
            <mxPoint x="465" y="230" as="targetPoint" />
            <Array as="points">
              <mxPoint x="464.5" y="230" />
              <mxPoint x="464.5" y="220" />
            </Array>
          </mxGeometry>
        </mxCell>
        <mxCell id="G0Ot-FoULC2eowzURZDv-33" value="" style="endArrow=classic;html=1;rounded=0;entryX=0;entryY=0.5;entryDx=0;entryDy=0;exitX=1;exitY=0;exitDx=0;exitDy=0;" edge="1" parent="1" source="G0Ot-FoULC2eowzURZDv-2" target="G0Ot-FoULC2eowzURZDv-14">
          <mxGeometry width="50" height="50" relative="1" as="geometry">
            <mxPoint x="550" y="190" as="sourcePoint" />
            <mxPoint x="600" y="140" as="targetPoint" />
            <Array as="points">
              <mxPoint x="570" y="170" />
            </Array>
          </mxGeometry>
        </mxCell>
        <mxCell id="G0Ot-FoULC2eowzURZDv-35" value="" style="endArrow=classic;html=1;rounded=0;entryX=0;entryY=0.25;entryDx=0;entryDy=0;exitX=0.963;exitY=0.31;exitDx=0;exitDy=0;exitPerimeter=0;" edge="1" parent="1">
          <mxGeometry width="50" height="50" relative="1" as="geometry">
            <mxPoint x="504.99999999999994" y="254.79999999999995" as="sourcePoint" />
            <mxPoint x="622.96" y="160" as="targetPoint" />
            <Array as="points" />
          </mxGeometry>
        </mxCell>
        <mxCell id="G0Ot-FoULC2eowzURZDv-36" value="" style="endArrow=classic;html=1;rounded=0;entryX=0;entryY=0.25;entryDx=0;entryDy=0;" edge="1" parent="1" target="G0Ot-FoULC2eowzURZDv-16">
          <mxGeometry width="50" height="50" relative="1" as="geometry">
            <mxPoint x="510" y="270" as="sourcePoint" />
            <mxPoint x="610" y="209" as="targetPoint" />
            <Array as="points" />
          </mxGeometry>
        </mxCell>
        <mxCell id="G0Ot-FoULC2eowzURZDv-37" value="" style="endArrow=classic;html=1;rounded=0;entryX=0;entryY=0.5;entryDx=0;entryDy=0;" edge="1" parent="1" target="G0Ot-FoULC2eowzURZDv-17">
          <mxGeometry width="50" height="50" relative="1" as="geometry">
            <mxPoint x="510" y="280" as="sourcePoint" />
            <mxPoint x="580" y="260" as="targetPoint" />
            <Array as="points" />
          </mxGeometry>
        </mxCell>
        <mxCell id="G0Ot-FoULC2eowzURZDv-40" value="" style="endArrow=classic;html=1;rounded=0;" edge="1" parent="1">
          <mxGeometry width="50" height="50" relative="1" as="geometry">
            <mxPoint x="505" y="290" as="sourcePoint" />
            <mxPoint x="610" y="310" as="targetPoint" />
            <Array as="points" />
          </mxGeometry>
        </mxCell>
        <mxCell id="G0Ot-FoULC2eowzURZDv-41" value="" style="endArrow=classic;html=1;rounded=0;entryX=0;entryY=0.5;entryDx=0;entryDy=0;" edge="1" parent="1" target="G0Ot-FoULC2eowzURZDv-19">
          <mxGeometry width="50" height="50" relative="1" as="geometry">
            <mxPoint x="510" y="310" as="sourcePoint" />
            <mxPoint x="657.96" y="350" as="targetPoint" />
            <Array as="points">
              <mxPoint x="510" y="310" />
            </Array>
          </mxGeometry>
        </mxCell>
        <mxCell id="G0Ot-FoULC2eowzURZDv-42" value="" style="endArrow=classic;html=1;rounded=0;" edge="1" parent="1">
          <mxGeometry width="50" height="50" relative="1" as="geometry">
            <mxPoint x="495" y="320" as="sourcePoint" />
            <mxPoint x="610" y="420" as="targetPoint" />
            <Array as="points">
              <mxPoint x="495" y="320" />
            </Array>
          </mxGeometry>
        </mxCell>
        <mxCell id="G0Ot-FoULC2eowzURZDv-43" value="" style="endArrow=classic;html=1;rounded=0;" edge="1" parent="1">
          <mxGeometry width="50" height="50" relative="1" as="geometry">
            <mxPoint x="470" y="340" as="sourcePoint" />
            <mxPoint x="470" y="480" as="targetPoint" />
            <Array as="points">
              <mxPoint x="470" y="310" />
              <mxPoint x="470" y="340" />
            </Array>
          </mxGeometry>
        </mxCell>
        <mxCell id="G0Ot-FoULC2eowzURZDv-44" value="" style="endArrow=classic;html=1;rounded=0;" edge="1" parent="1">
          <mxGeometry width="50" height="50" relative="1" as="geometry">
            <mxPoint x="455" y="320" as="sourcePoint" />
            <mxPoint x="335" y="480" as="targetPoint" />
            <Array as="points">
              <mxPoint x="460" y="310" />
              <mxPoint x="455" y="320" />
            </Array>
          </mxGeometry>
        </mxCell>
        <mxCell id="G0Ot-FoULC2eowzURZDv-45" value="" style="endArrow=classic;html=1;rounded=0;" edge="1" parent="1">
          <mxGeometry width="50" height="50" relative="1" as="geometry">
            <mxPoint x="310" y="310" as="sourcePoint" />
            <mxPoint x="190" y="470" as="targetPoint" />
            <Array as="points">
              <mxPoint x="430" y="300" />
            </Array>
          </mxGeometry>
        </mxCell>
      </root>
    </mxGraphModel>
  </diagram>
</mxfile>
